<?xml version="1.0" encoding="UTF-8"?>
<svg id="Layer_1" xmlns="http://www.w3.org/2000/svg" version="1.1" viewBox="0 110 288 160">
  <defs>
    <style>
      .st0 {
        fill: #211e1f;
      }

      .st1 {
        fill: #d41f33;
      }
    </style>
  </defs>
  <path class="st0" d="M279.94,182.85l-.38-.55-.44-.5c-1.4-1.56-2.95-2.98-4.65-4.25.94-2.23,1.43-4.69,1.43-7.29s-.55-5.1-1.65-7.52c-2.51-5.42-7.64-8.66-13.72-8.66-3.33,0-6.47.86-9.33,2.55-3.79,2.18-6.65,5.04-8.48,8.38-3.1-2.11-6.82-3.38-11.08-3.8l-.51-.05h-.52c-3.68,0-7.18.58-10.45,1.68.04-.42.1-.84.12-1.27l.03-.67-.05-.66c-.22-2.73-1.03-5.15-2.4-7.21-2.57-4.29-7.02-6.82-12.09-6.82-2.88,0-5.83.77-8.77,2.28l-.25.13c-4.75,2.61-7.86,6.82-8.92,11.85-.69-.1-1.39-.16-2.09-.16-2.46,0-5.89.59-9.31,3.12-2.08-.53-4.26-.8-6.5-.8-2.56,0-5.12.37-7.71,1.15-1.57.48-3.08,1.07-4.53,1.77-.64-.74-1.35-1.43-2.13-2.08l-.31-.25-.33-.23c-2.48-1.75-5.38-2.67-8.37-2.67-2.46,0-5.89.59-9.31,3.12-2.08-.53-4.26-.8-6.5-.8s-4.27.28-6.42.81c.08-.61.15-1.23.18-1.86l.03-.67-.05-.66c-.22-2.73-1.03-5.15-2.4-7.21-2.57-4.29-7.02-6.82-12.09-6.82-.45,0-.9.05-1.35.09,1.79-3.17,2.75-6.8,2.75-10.65,0-10.04-5.65-17.96-15.51-21.7l-.63-.24-.66-.16c-1.99-.48-3.99-.72-5.96-.72-3.29,0-6.48.68-9.53,2.05-4.49,2.04-8.56,4.96-12.17,8.7-2.59-.59-5.16-.92-7.67-.98h-.24c-11.87,0-22.28,3.66-30.97,10.88-9.68,8.06-14.81,18.93-15.23,32.3v.34c0,5.78,1.16,10.95,3.4,15.33-8.04,3.38-12.62,10.77-12.62,20.44,0,7.84,3.54,14.52,10.31,19.37,6.2,4.36,13,6.57,20.21,6.57,1.17,0,2.37-.06,3.56-.17l.35-.03.35-.06c4.35-.7,8.42-2.06,12.17-4.05,5,3.12,10.82,4.74,17.21,4.74h1.65l.55-.06c7.06-.74,13.53-3.4,19.22-7.91,1.71-1.35,3.27-2.81,4.71-4.36.66.39,1.34.76,2.06,1.08l.24.11.24.1c.75.29,1.53.54,2.34.73-6.25,7.5-7.87,15.62-7.87,22.04s1.82,12.06,5.41,16.96l.17.23.18.22c4.8,5.86,11.38,8.95,19.01,8.95,6.67,0,13.09-2.31,19.07-6.87l.24-.19.23-.2c.4-.34.79-.69,1.17-1.04,4.75,5.44,11.11,8.3,18.46,8.3,6.67,0,13.09-2.31,19.07-6.87l.24-.19.23-.2c9.59-8.23,15.11-19.84,16.42-34.52l.02-.24c.06-.96.16-1.92.29-2.85,0,0,.05-.41.06-.48,1.62-.77,3.2-1.7,4.71-2.78,1.11.18,2.27.27,3.46.27h.5c2.92-.15,5.93-.85,8.79-2.03.45-.18.9-.37,1.33-.57.07.04.74.39.74.39l.54.21c3.21,1.25,6.58,1.88,10.01,1.88,2.06,0,4.13-.23,6.06-.65,3.42-.71,6.94-1.91,10.53-3.6,3.17,2.67,6.65,4.29,10.43,4.82,5.59.79,7.48.9,8.69.9,7.76,0,14.94-2.98,20.75-8.61l.32-.31.3-.34c4.88-5.6,5.91-11.1,5.91-14.72,0-4.46-1.45-8.83-4.32-12.99ZM51.31,154.39c-.27-.1-.54-.19-.81-.28.11-.02.57-.1.57-.1,0,0,.32-.07.36-.07-.04.15-.08.3-.12.44Z"/>
  <path class="st1" d="M271.2,188.87c-1.71-1.91-3.76-3.5-6.17-4.76-1.83-1.06-2.93-1.77-3.29-2.14-1.87-1.22-3.07-2.42-3.6-3.6-.12-.29-.18-.51-.18-.67,0-.29.29-.43.86-.43,1.46,0,2.75-.39,3.84-1.16,1.75-1.42,2.63-3.38,2.63-5.86,0-1.06-.22-2.08-.67-3.05-.77-1.67-2.14-2.5-4.09-2.5-1.43,0-2.75.37-3.97,1.1-3.7,2.12-5.56,4.97-5.56,8.55,0,3.05,1.91,6.41,5.74,10.07,3.25,3.05,4.96,5.52,5.13,7.39l.06,1.34c0,3.17-1.36,4.76-4.09,4.76-.94,0-1.53-.13-1.77-.4-.24-.26-.55-.93-.91-1.98-.82-2.28-2.08-4.1-3.78-5.46-1.71-1.36-3.64-2.04-5.8-2.04-2.93,0-5.11,1.24-6.53,3.72-.49,1.1-.73,2.22-.73,3.36,0,.16.02.33.03.49-3.05,1.87-6.23,2.81-9.55,2.81-1.38,0-2.79-.16-4.21-.49-2.93-.94-4.58-2.58-4.94-4.94,4.15-.04,8.1-.95,11.84-2.72,3.74-1.77,6.29-4.69,7.63-8.76.24-.98.37-1.87.37-2.69,0-1.83-.61-3.28-1.83-4.33-1.75-1.5-4.09-2.4-7.02-2.69-6.39,0-11.66,2.34-15.81,7.02-3.62,3.95-5.69,7.57-6.2,10.87-.51,3.3-.76,5.31-.76,6.04,0,.6.04,1.19.12,1.76-1.49,1.01-2.77,1.54-3.84,1.54-1.83,0-2.79-.98-2.87-2.93l.06-1.34c.53-4.84,1.34-8.83,2.44-11.96.69-1.75,1.04-3.64,1.04-5.68v-.67c-.45-2.44-1.71-3.66-3.78-3.66-3.46,0-5.8,2.85-7.02,8.55-1.83,5.98-2.81,11.95-2.93,17.89.01.24.04.47.06.7-.09.11-.16.22-.25.33-2.16,2.69-4.21,4.54-6.17,5.55-.85.41-1.5.61-1.95.61-.57,0-.86-.26-.86-.79,0-.41.1-1.06.31-1.95.53-2.24.79-3.72.79-4.46.04-.2.08-.4.12-.58.04-.18.1-.8.18-1.86.49-5.01,1.75-9.36,3.78-13.06,1.99-3.26,2.99-5.92,2.99-8,0-1.55-.69-2.89-2.08-4.03-.69-.49-1.44-.73-2.26-.73-1.43,0-2.77.65-4.03,1.95-1.14,1.14-1.85,2.44-2.14,3.91-2.69-2.36-5.9-3.54-9.65-3.54-1.55,0-3.07.22-4.58.67-3.95,1.22-7.32,3.4-10.13,6.53-2.81,3.13-4.21,7-4.21,11.6,0,2.22.59,4.48,1.69,6.77-.31.47-.64.94-1.02,1.41-2.16,2.69-4.21,4.54-6.17,5.55-.85.41-1.5.61-1.95.61-.57,0-.86-.26-.86-.79,0-.41.1-1.06.31-1.95.53-2.24.79-3.72.79-4.46.04-.2.08-.4.12-.58.04-.18.1-.8.18-1.86.49-5.01,1.75-9.36,3.78-13.06,1.99-3.26,2.99-5.92,2.99-8,0-1.55-.69-2.89-2.08-4.03-.69-.49-1.44-.73-2.26-.73-1.43,0-2.77.65-4.03,1.95-1.14,1.14-1.85,2.44-2.14,3.91-2.69-2.36-5.9-3.54-9.65-3.54-1.55,0-3.07.22-4.58.67-3.95,1.22-7.32,3.4-10.13,6.53-2.81,3.13-4.21,7-4.21,11.6,0,1.65.34,3.32.94,5-1.73,1.28-3.22,1.96-4.42,1.96-1.83,0-2.79-.98-2.87-2.93l.06-1.34c.53-4.84,1.34-8.83,2.44-11.96.69-1.75,1.04-3.64,1.04-5.68v-.67c-.45-2.44-1.71-3.66-3.78-3.66-3.46,0-5.8,2.85-7.02,8.55-1.83,5.98-2.81,11.95-2.93,17.89.16,3.99,1.83,6.69,5.01,8.12.94.37,2.03.55,3.3.55,1.71-.08,3.5-.51,5.37-1.28,2.82-1.12,4.92-2.71,6.32-4.77,1,1.35,2.16,2.46,3.51,3.3,1.63,1.02,3.32,1.53,5.07,1.53,3.46,0,6.61-1.79,9.46-5.37l-1.1,9.58c-4.84,1.1-9.91,3.07-15.2,5.92-10.34,5.62-15.51,13.35-15.51,23.2,0,4.07,1.12,7.63,3.36,10.68,2.77,3.38,6.37,5.07,10.8,5.07s8.53-1.57,12.64-4.7c7.45-6.39,11.7-15.53,12.76-27.41.08-1.22.2-2.42.37-3.6.08-.73.12-1.28.12-1.65.04-1.14.2-2.21.49-3.2.29-1,.98-1.76,2.08-2.29.65-.33,1.28-.61,1.89-.85,1.71-.65,3.36-1.57,4.95-2.75,2.08-1.68,3.75-3.6,5.02-5.75.62.6,1.28,1.15,2,1.6,1.63,1.02,3.32,1.53,5.07,1.53,3.46,0,6.61-1.79,9.46-5.37l-1.1,9.58c-4.84,1.1-9.91,3.07-15.2,5.92-10.34,5.62-15.51,13.35-15.51,23.2,0,4.07,1.12,7.63,3.36,10.68,2.77,3.38,6.37,5.07,10.8,5.07s8.53-1.57,12.64-4.7c7.45-6.39,11.7-15.53,12.76-27.41.08-1.22.2-2.42.37-3.6.08-.73.12-1.28.12-1.65.04-1.14.2-2.21.49-3.2.29-1,.98-1.76,2.08-2.29.65-.33,1.28-.61,1.89-.85,1.71-.65,3.36-1.57,4.95-2.75,1.35-1.09,2.51-2.29,3.51-3.57.68.65,1.47,1.2,2.41,1.62.94.37,2.03.55,3.3.55,1.71-.08,3.5-.51,5.37-1.28,2.35-.94,4.2-2.2,5.57-3.79,1.18,1.46,2.77,2.73,4.81,3.79,1.99.77,4.05,1.16,6.16,1.16,1.3,0,2.6-.14,3.91-.43,4.71-.98,9.74-3.22,15.08-6.71,2.94,4.71,6.11,7.33,9.52,7.81,3.74.53,6.14.79,7.2.79,5.05,0,9.5-1.87,13.37-5.62,2.2-2.52,3.3-5.11,3.3-7.75,0-2.28-.81-4.6-2.44-6.96ZM227.01,180.39c1.87-.86,3.09-1.28,3.66-1.28.98.2,1.47.54,1.49,1.01s.03.78.03.95c0,.61-.14,1.24-.43,1.89-1.67,3.38-5.58,5.23-11.72,5.55,1.06-3.54,3.38-6.25,6.96-8.12ZM130.32,225.44c-.49,3.01-1.45,5.92-2.87,8.73-3.09,6.19-6.61,9.28-10.56,9.28-.94,0-1.83-.2-2.69-.61-1.67-1.06-2.5-2.12-2.5-3.17v-1.77c0-5.45,2.46-10.01,7.39-13.67,3.34-2.48,6.88-4.31,10.62-5.49.57-.24,1.08-.39,1.53-.43,0,.85-.3,3.23-.91,7.14ZM135.14,186.37c-2.93,4.4-5.94,7.3-9.03,8.73-1.06.49-1.93.73-2.63.73-1.51,0-2.26-.89-2.26-2.69,0-1.67.57-3.5,1.71-5.49,3.09-5.09,6.86-7.63,11.29-7.63,1.47,0,2.89.41,4.27,1.22-1.1,1.75-2.22,3.46-3.36,5.13ZM169.51,225.44c-.49,3.01-1.45,5.92-2.87,8.73-3.09,6.19-6.61,9.28-10.56,9.28-.94,0-1.83-.2-2.69-.61-1.67-1.06-2.5-2.12-2.5-3.17v-1.77c0-5.45,2.46-10.01,7.39-13.67,3.34-2.48,6.88-4.31,10.62-5.49.57-.24,1.08-.39,1.53-.43,0,.85-.3,3.23-.91,7.14ZM174.33,186.37c-2.93,4.4-5.94,7.3-9.03,8.73-1.06.49-1.93.73-2.63.73-1.51,0-2.26-.89-2.26-2.69,0-1.67.57-3.5,1.71-5.49,3.09-5.09,6.86-7.63,11.29-7.63,1.47,0,2.89.41,4.27,1.22-1.1,1.75-2.22,3.46-3.36,5.13Z"/>
  <path class="st1" d="M85.27,138.27c2.24,1.18,4.09,2.71,5.56,4.58,1.1,1.26,2.24,1.89,3.42,1.89,1.67,0,3.15-.85,4.46-2.56,1.38-1.83,2.08-4.01,2.08-6.53,0-5.66-2.89-9.58-8.67-11.78-1.18-.28-2.34-.43-3.48-.43-1.79,0-3.5.37-5.13,1.1-5.01,2.28-9.32,6.06-12.94,11.35-4.03-1.71-7.87-2.6-11.54-2.69-9.36,0-17.42,2.81-24.17,8.42-7.29,6.06-11.09,14.22-11.42,24.48,0,8.71,3.3,14.65,9.89,17.82,2.4.98,4.64,1.46,6.72,1.46,2.24,0,4.27-.55,6.1-1.65,3.58-2.12,5.61-5.82,6.1-11.11v-.49c0-1.63-.35-3.13-1.04-4.52-1.22-2.52-3.48-3.79-6.78-3.79-.45,0-.9.02-1.34.06s-.88.06-1.28.06c-1.06,0-2.1-.14-3.11-.43-2.48-.98-3.9-2.26-4.24-3.85s-.52-2.71-.52-3.36c0-1.75.55-3.4,1.65-4.95,3.5-4.31,8.02-6.92,13.55-7.81,2.73-.57,5.47-.86,8.24-.86.65,0,2.2.18,4.64.55,2.64.41,3.97.67,3.97.79-2.36,5.61-4.17,11.41-5.43,17.4-1.59,7.57-3.64,15.08-6.16,22.53-1.14,3.46-2.67,6.74-4.58,9.83-1.91,3.09-4.6,5.45-8.06,7.08-1.83.86-3.32,1.28-4.46,1.28h-1.77c-2.24,0-3.95-.89-5.13-2.69-.49-.89-.81-1.85-.98-2.87-.73-3.91-2.93-5.86-6.59-5.86-.65,0-1.3.08-1.95.24-4.44,1.63-6.65,5.25-6.65,10.87,0,4.35,1.93,7.92,5.8,10.68,4.4,3.09,9.1,4.64,14.1,4.64.86,0,1.71-.04,2.56-.12,5.53-.9,10.38-3.2,14.53-6.9,4.23,4.96,9.74,7.45,16.54,7.45h1.1c5.05-.53,9.62-2.42,13.73-5.68,4.11-3.25,7.14-7.18,9.1-11.78,1.3-3.13,1.95-6.41,1.95-9.83,0-6.06-1.93-11.03-5.8-14.89-4.03-3.66-8.71-6.19-14.04-7.57,1.51-.81,2.73-1.57,3.66-2.26,4.52-3.38,6.78-7.73,6.78-13.06-.2-5.01-2.54-9.22-7.02-12.64,1.63-1.63,3.32-2.44,5.07-2.44.98,0,1.97.26,2.99.79ZM77.21,179.11c1.75,1.79,3.12,3.86,4.12,6.2,1,2.34,1.5,4.38,1.5,6.13,0,5.33-3.36,8-10.07,8-4.35-.08-7.87-1.77-10.56-5.07,1.79-4.68,2.91-9.67,3.36-14.96.49-3.99.79-6.12.92-6.41,3.99.98,7.57,3.01,10.74,6.1ZM77.58,154.08c0,.86-.22,1.75-.67,2.69-.81,1.38-1.83,2.38-3.05,2.99-1.02.53-2.75,1.16-5.19,1.89,1.3-5.82,2.64-10.54,4.03-14.16,1.71,1.1,2.95,2.24,3.72,3.42.77,1.18,1.16,2.24,1.16,3.17Z"/>
  <path class="st1" d="M202.1,168.42h1.53c.65,0,1.26-.12,1.83-.37l1.22-.73c1.87-1.42,2.87-3.5,2.99-6.23-.08-1.02-.35-1.81-.79-2.38-.65-1.26-1.69-1.89-3.11-1.89-1.18,0-2.48.37-3.91,1.1-2.52,1.38-3.8,3.48-3.84,6.29.12,2.81,1.48,4.21,4.09,4.21Z"/>
  <path class="st1" d="M106.33,168.42h1.53c.65,0,1.26-.12,1.83-.37l1.22-.73c1.87-1.42,2.87-3.5,2.99-6.23-.08-1.02-.35-1.81-.79-2.38-.65-1.26-1.69-1.89-3.11-1.89-1.18,0-2.48.37-3.91,1.1-2.52,1.38-3.8,3.48-3.84,6.29.12,2.81,1.48,4.21,4.09,4.21Z"/>
</svg>